<?xml version="1.0" encoding="utf-8"?>
<svg version="1.1" id="Ebene_1" xmlns="http://www.w3.org/2000/svg" xmlns:xlink="http://www.w3.org/1999/xlink" x="0px" y="0px"
	 viewBox="0 0 200 200" style="enable-background:new 0 0 200 200;" xml:space="preserve">
<path fill="#FFFFFF" d="M57.3,16.5h105v6.8h-105C57.3,23.3,57.3,16.5,57.3,16.5z M37.3,30.1h125v6.8h-125
	C37.3,36.9,37.3,30.1,37.3,30.1z M37.3,43.5h125v6.8h-125C37.3,50.3,37.3,43.5,37.3,43.5z M37.3,57.1h125v6.8h-125
	C37.3,63.9,37.3,57.1,37.3,57.1z M37.3,71.4H120v6.3H37.3V71.4z"/>
<path fill="#FF0072" class="st1" d="M166.4,121.5c-2.4-13.5-12-15.9-16.6-16.2c-1.4,0-2.8-0.8-3.5-2c-3.3-4.9-7.7-6.3-11.4-6.3
	c-2.8,0-5.2,0.6-6.3,1.1c-0.1,0-0.4,0-0.6,0c-0.6,0-1-0.1-1.4-0.8c-3.3-5.7-8.1-7.2-12-7.2c-2.4,0-4.3,0.6-5.9,1c-0.1,0-0.4,0-0.6,0
	c-0.8,0-1.5-0.6-1.5-1.4V60.5c0-6.7-4.9-10-10-10c-5.2,0-10,3.3-10,10v51.7c0,2.9-2.4,4.9-4.7,4.9c-1.5,0-2.9-0.8-3.9-2.2l-5-7.4
	c-2.2-3.5-5.3-4.9-8.2-4.9c-6.8,0-13.8,7.5-8.9,15.3L94,190.8c0.1,0.4,0.8,0.8,1.4,0.8h53.5c0.8,0,1.4-0.6,1.4-1.4l1.4-21.9
	c0-0.1,0.1-0.6,0.1-0.8C164.8,147.5,168.7,134.5,166.4,121.5z M44,12.7c3.9,0,7,3.1,7,7s-3.1,7-7,7s-7-3.1-7-7S40.1,12.7,44,12.7z"
	/>
</svg>
